<?xml version="1.0" encoding="UTF-8" standalone="no"?>
<svg
   xmlns:dc="http://purl.org/dc/elements/1.1/"
   xmlns:cc="http://creativecommons.org/ns#"
   xmlns:rdf="http://www.w3.org/1999/02/22-rdf-syntax-ns#"
   xmlns:svg="http://www.w3.org/2000/svg"
   xmlns="http://www.w3.org/2000/svg"
   xmlns:sodipodi="http://sodipodi.sourceforge.net/DTD/sodipodi-0.dtd"
   xmlns:inkscape="http://www.inkscape.org/namespaces/inkscape"
   version="1.1"
   x="0px"
   y="0px"
   viewBox="0 0 1000 1000"
   enable-background="new 0 0 1000 1000"
   xml:space="preserve"
   id="svg4071"
   sodipodi:docname="sails.svg"
   inkscape:version="0.92.3 (2405546, 2018-03-11)"><defs
   id="defs4075" /><sodipodi:namedview
   pagecolor="#ffffff"
   bordercolor="#666666"
   borderopacity="1"
   objecttolerance="10"
   gridtolerance="10"
   guidetolerance="10"
   inkscape:pageopacity="0"
   inkscape:pageshadow="2"
   inkscape:window-width="1920"
   inkscape:window-height="1017"
   id="namedview4073"
   showgrid="false"
   inkscape:zoom="0.834"
   inkscape:cx="500"
   inkscape:cy="298.71635"
   inkscape:window-x="0"
   inkscape:window-y="30"
   inkscape:window-maximized="1"
   inkscape:current-layer="g4067" />
<metadata
   id="metadata4057"> Svg Vector Icons : http://www.onlinewebfonts.com/icon <rdf:RDF><cc:Work
     rdf:about=""><dc:format>image/svg+xml</dc:format><dc:type
       rdf:resource="http://purl.org/dc/dcmitype/StillImage" /></cc:Work></rdf:RDF></metadata>
<g
   id="g4069"><g
     transform="translate(0.000000,511.000000) scale(0.100000,-0.100000)"
     id="g4067"><g
       id="g4080"
       transform="translate(-35.971223,227.81775)"
       style="fill:#e6e6e6"><path
         id="path4061"
         d="M 5007.5,4402.6 C 5238.6,3344 5354.2,2635.3 5433.3,1820 c 51.7,-547.5 51.7,-2354.4 0,-2859.4 -48.7,-465.4 -164.3,-1162 -246.4,-1472.3 l -57.8,-231.2 173.4,139.9 c 1079.9,870 2226.7,1326.3 3355.2,1332.4 l 416.7,3.1 18.2,246.4 c 12.2,136.9 6.1,438 -12.2,666.2 -194.7,2324 -1444.9,3957.5 -3592.5,4684.5 -158.2,54.7 -334.6,109.5 -392.4,121.7 -97.2,21.3 -100.2,18.2 -88,-48.7 z"
         inkscape:connector-curvature="0"
         style="fill:#e6e6e6" /><path
         id="path4063"
         d="M 4578.5,2784.3 C 3976.2,940.9 2993.7,-875.1 1889.5,-2189.2 c -115.6,-136.9 -206.9,-255.5 -200.8,-261.6 21.3,-21.3 681.4,-139.9 939.9,-170.3 632.7,-76 1514.9,-21.3 1925.5,118.6 155.1,54.8 158.2,57.8 194.7,219 66.9,282.9 188.6,1180.3 225.1,1648.7 51.7,666.2 18.3,2129.3 -60.8,2716.4 -57.8,431.9 -173.4,1073.8 -194.7,1095.1 -3,6.1 -66.8,-170.3 -139.9,-392.4 z"
         inkscape:connector-curvature="0"
         style="fill:#e6e6e6" /><path
         id="path4065"
         d="m 8864.6,-2034 c -1006.9,-611.4 -2384.8,-991.7 -4289.1,-1183.3 -644.9,-63.9 -2476.1,-91.3 -3206.2,-45.6 -316.4,18.3 -581,27.4 -590.1,18.3 -39.6,-39.5 60.8,-438 161.2,-641.9 76,-158.2 161.2,-267.7 292,-386.3 l 182.5,-167.3 -228.1,-21.3 -231.2,-21.3 v -149 -149.1 h 146 c 237.3,0 547.5,82.1 778.7,206.8 l 216,115.6 167.3,-100.4 c 459.3,-276.8 1031.2,-282.9 1530.1,-15.2 l 219,115.6 158.2,-97.3 c 255.5,-152.1 471.5,-209.9 800,-206.9 319.4,0 614.5,85.2 833.5,231.2 l 115.6,79.1 139.9,-88.2 c 483.7,-298.1 1149.8,-304.2 1615.3,-15.2 l 167.3,103.4 142.9,-88.2 c 206.9,-127.8 465.4,-209.9 736.1,-231.2 l 234.2,-18.2 v 152.1 152.1 l -188.6,21.3 c -106.5,9.1 -243.4,33.4 -304.2,48.7 l -112.6,33.4 152.1,188.6 c 377.2,471.5 727,1417.5 727,1974.2 0,179.5 -54.7,331.5 -115.6,325.5 -12,-0.1 -124.5,-64 -249.2,-140 z"
         inkscape:connector-curvature="0"
         style="fill:#e6e6e6" /></g></g></g>
</svg>